#!OML:ASF X:\für Bonn\!DataBase\2005_08_12_Daniel\c3d\Daniel.ASF
:FULLY-SPECIFIED
:DEGREES
1457
root 15.0105 17.0807 -23.3689 -187.915 64.9113 534.993
lowerback 5.90517 1.53141 1.65759
upperback 0.738671 2.12664 -2.29842
thorax -2.40036 1.05494 -3.46937
lowerneck 2.13619 -0.166475 -5.49876
upperneck 19.0935 0.636174 1.49325
head 5.39562 0.392898 1.4499
rclavicle 4.53198e-014 -8.74653e-015
rhumerus -29.0611 -5.83498 -88.4802
rradius 27.6844
rwrist 18.7868
rhand -18.2885 20.9544
rfingers 7.12502
rthumb 7.99189 -8.87449
lclavicle 4.53198e-014 -8.74653e-015
lhumerus -104.057 54.4717 -16.0592
lradius 13.1206
lwrist -83.646
lhand -9.69317 -4.85159
lfingers 7.12502
lthumb 16.2791 24.485
rfemur 30.6973 8.19691 27.911
rtibia -3.18055e-015
rfoot -14.4401 10.9997
rtoes 4.14877
lfemur -31.9476 -10.0468 -18.7799
ltibia 30.2659
lfoot -18.453 9.51358
ltoes -11.1592
1458
root 15.1641 17.0536 -23.4834 -188.474 64.8354 534.575
lowerback 5.9675 1.5304 1.39881
upperback 0.774611 2.11093 -2.35932
thorax -2.40631 1.05093 -3.38694
lowerneck 2.20165 -0.228358 -5.59284
upperneck 19.1872 0.555978 1.53497
head 5.41709 0.35256 1.47668
rclavicle 1.27272e-013 -2.22639e-014
rhumerus -29.023 -7.12124 -88.0947
rradius 27.1647
rwrist 18.9306
rhand -18.8583 20.6811
rfingers 7.12502
rthumb 7.44193 -9.16801
lclavicle 1.27272e-013 -2.22639e-014
lhumerus -105.474 54.3137 -17.9561
lradius 13.1508
lwrist -84.0086
lhand -10.024 -4.54809
lfingers 7.12502
lthumb 15.9605 24.8143
rfemur 31.4579 7.3637 27.2308
rtibia -3.18055e-014
rfoot -14.0286 11.8381
rtoes 3.96412
lfemur -31.6659 -9.92153 -19.4002
ltibia 30.6239
lfoot -15.9303 8.99869
ltoes -9.82628
1459
root 15.3192 17.0322 -23.5971 -189.227 64.7462 533.968
lowerback 6.1018 1.54015 0.980548
upperback 0.802356 2.09944 -2.44109
thorax -2.46548 1.05015 -3.23948
lowerneck 2.14981 -0.308128 -5.56159
upperneck 19.3793 0.460512 1.55333
head 5.48939 0.311299 1.47607
rclavicle -2.07481e-014 9.54166e-015
rhumerus -29.0691 -8.4131 -87.7253
rradius 26.6519
rwrist 18.9827
rhand -19.4207 20.0491
rfingers 7.12502
rthumb 6.89905 -9.81847
lclavicle -2.07481e-014 9.54166e-015
lhumerus -106.652 54.2107 -19.5174
lradius 13.1923
lwrist -84.0033
lhand -10.4888 -4.2103
lfingers 7.12502
lthumb 15.5129 25.1874
rfemur 29.7982 6.51228 26.4575
rtibia 4.47681
rfoot -15.4509 13.041
rtoes 4.07438
lfemur -31.367 -9.80984 -20.0698
ltibia 31.1146
lfoot -13.6003 8.30352
ltoes -9.28015
1460
root 15.4732 17.0111 -23.7098 -190.017 64.6161 533.308
lowerback 6.21938 1.54656 0.491994
upperback 0.834428 2.07835 -2.53409
thorax -2.51329 1.04588 -3.0627
lowerneck 2.15161 -0.385812 -5.4333
upperneck 19.495 0.366327 1.51395
head 5.52867 0.273584 1.43987
rclavicle -6.15922e-015 -2.10712e-014
rhumerus -29.1117 -9.85434 -87.3153
rradius 25.8892
rwrist 19.0389
rhand -19.9324 19.4572
rfingers 7.12502
rthumb 6.40509 -10.4259
lclavicle -6.15922e-015 -2.10712e-014
lhumerus -106.178 54.3616 -19.0594
lradius 13.2478
lwrist -82.794
lhand -10.9517 -3.78578
lfingers 7.12502
lthumb 15.067 25.6459
rfemur 29.0745 5.66628 25.5885
rtibia 7.12971
rfoot -15.6141 14.0787
rtoes 4.6076
lfemur -31.1098 -9.91504 -20.6887
ltibia 31.7196
lfoot -11.3967 7.69076
ltoes -8.63063
1461
root 15.6296 16.9952 -23.8242 -190.875 64.5101 532.587
lowerback 6.31161 1.54621 -0.0935326
upperback 0.870566 2.04165 -2.57155
thorax -2.54857 1.03482 -2.77166
lowerneck 2.17422 -0.44448 -5.38081
upperneck 19.6538 0.31721 1.40464
head 5.57751 0.249859 1.39653
rclavicle 3.34952e-014 0
rhumerus -29.2238 -10.8198 -86.8826
rradius 25.0593
rwrist 18.6781
rhand -20.6246 18.7827
rfingers 7.12502
rthumb 5.73679 -11.1196
lclavicle 3.34952e-014 0
lhumerus -105.712 54.5122 -18.4198
lradius 13.3251
lwrist -81.3656
lhand -11.4778 -3.48995
lfingers 7.12502
lthumb 14.5602 25.979
rfemur 28.3377 4.88154 24.6274
rtibia 9.75485
rfoot -15.2282 15.172
rtoes 5.39272
lfemur -30.8302 -9.91698 -21.3221
ltibia 32.412
lfoot -9.72151 7.06514
ltoes -9.18798
1462
root 15.7852 16.9794 -23.9354 -191.705 64.3864 531.894
lowerback 6.44173 1.58063 -0.659462
upperback 0.886698 2.05031 -2.66399
thorax -2.62052 1.04645 -2.55448
lowerneck 2.19348 -0.53863 -5.17162
upperneck 19.8388 0.220411 1.27458
head 5.63592 0.213144 1.31865
rclavicle -9.40267e-014 8.34896e-015
rhumerus -29.4213 -12.073 -86.3944
rradius 24.1771
rwrist 18.3334
rhand -21.1892 18.0984
rfingers 7.12502
rthumb 5.19171 -11.818
lclavicle -9.40267e-014 8.34896e-015
lhumerus -104.465 54.7748 -16.9723
lradius 13.4195
lwrist -79.6245
lhand -11.8763 -3.27216
lfingers 7.12502
lthumb 14.1762 26.2241
rfemur 27.476 4.09963 23.6231
rtibia 12.475
rfoot -14.3549 16.2781
rtoes 6.6512
lfemur -30.6074 -9.71273 -21.943
ltibia 33.202
lfoot -8.59038 6.3232
ltoes -10.3798
1463
root 15.9392 16.9673 -24.0458 -192.675 64.228 531.076
lowerback 6.60256 1.59147 -1.31131
upperback 0.930839 2.02126 -2.74388
thorax -2.68528 1.04108 -2.2737
lowerneck 2.20782 -0.593797 -5.02775
upperneck 19.9713 0.167985 1.18183
head 5.67703 0.19476 1.26457
rclavicle 1.07468e-014 -2.78299e-014
rhumerus -29.5948 -13.2569 -85.8843
rradius 23.1589
rwrist 17.985
rhand -21.7861 17.5219
rfingers 7.12502
rthumb 4.61529 -12.4078
lclavicle 1.07468e-014 -2.78299e-014
lhumerus -102.702 55.1219 -14.8081
lradius 13.4839
lwrist -77.3515
lhand -12.3322 -3.03408
lfingers 7.12502
lthumb 13.7369 26.4925
rfemur 26.4953 2.92845 22.2706
rtibia 15.3446
rfoot -12.9406 17.7117
rtoes 8.43866
lfemur -30.3614 -9.45624 -22.6304
ltibia 34.0746
lfoot -7.83048 5.68889
ltoes -11.2571
1464
root 16.0945 16.9564 -24.156 -193.55 64.0827 530.36
lowerback 6.71041 1.61255 -1.89749
upperback 0.99588 2.01164 -2.83049
thorax -2.69533 1.04519 -2.03631
lowerneck 2.19615 -0.656405 -4.87331
upperneck 20.136 0.114926 1.05311
head 5.73278 0.1749 1.19759
rclavicle 1.17097e-014 1.27222e-014
rhumerus -29.7112 -15.1587 -85.1414
rradius 21.9223
rwrist 18.3508
rhand -22.2489 17.0934
rfingers 7.12502
rthumb 4.16845 -12.8456
lclavicle 1.17097e-014 1.27222e-014
lhumerus -99.7008 55.5336 -11.1229
lradius 13.6313
lwrist -74.253
lhand -12.5657 -2.91681
lfingers 7.12502
lthumb 13.5118 26.6248
rfemur 25.3631 1.60026 20.8464
rtibia 18.362
rfoot -11.213 19.1035
rtoes 9.69059
lfemur -30.1529 -8.93582 -23.3228
ltibia 35.0383
lfoot -7.24658 4.95009
ltoes -10.6817
1465
root 16.249 16.9507 -24.2643 -194.467 63.9498 529.584
lowerback 6.82109 1.62642 -2.4712
upperback 1.04148 1.99144 -2.93363
thorax -2.72583 1.04394 -1.82302
lowerneck 2.21589 -0.679464 -4.87134
upperneck 20.2884 0.103053 1.02759
head 5.77842 0.171193 1.19037
rclavicle 2.85442e-015 1.23246e-014
rhumerus -29.867 -17.7385 -84.1251
rradius 20.4478
rwrist 19.5288
rhand -22.609 16.9062
rfingers 7.12502
rthumb 3.8207 -13.0393
lclavicle 2.85442e-015 1.23246e-014
lhumerus -96.9666 55.8391 -7.84025
lradius 13.7108
lwrist -71.5358
lhand -12.7782 -2.85375
lfingers 7.12502
lthumb 13.307 26.7014
rfemur 24.0909 0.308441 19.3952
rtibia 21.492
rfoot -9.18896 20.1844
rtoes 10.4977
lfemur -29.9515 -8.41331 -24.038
ltibia 36.0651
lfoot -6.91027 4.25705
ltoes -9.94411
1466
root 16.401 16.94 -24.3722 -195.403 63.838 528.798
lowerback 6.88999 1.66948 -2.96026
upperback 1.13406 2.02048 -3.04293
thorax -2.68061 1.06644 -1.66565
lowerneck 2.22279 -0.70947 -4.98444
upperneck 20.4012 0.0798652 1.02107
head 5.81475 0.154071 1.20761
rclavicle -1.84008e-014 -5.56597e-015
rhumerus -30.0422 -20.5913 -82.8783
rradius 18.8986
rwrist 21.0543
rhand -22.9158 16.8036
rfingers 7.12502
rthumb 3.52441 -13.147
lclavicle -1.84008e-014 -5.56597e-015
lhumerus -93.8411 56.2006 -4.17416
lradius 13.7522
lwrist -68.6887
lhand -12.8771 -2.7734
lfingers 7.12502
lthumb 13.2117 26.788
rfemur 22.736 -0.969414 17.9056
rtibia 24.7505
rfoot -6.81785 21.193
rtoes 10.6002
lfemur -29.7529 -7.86402 -24.7676
ltibia 37.1266
lfoot -6.73879 3.62383
ltoes -9.29406
1467
root 16.5499 16.9275 -24.4768 -196.224 63.7142 528.13
lowerback 7.00156 1.69085 -3.33653
upperback 1.16241 2.02178 -3.16976
thorax -2.72143 1.07401 -1.59036
lowerneck 2.36951 -0.688818 -5.18447
upperneck 20.5212 0.114113 1.10882
head 5.82818 0.167853 1.27191
rclavicle 2.95855e-014 -3.97569e-016
rhumerus -30.4788 -23.1314 -81.6048
rradius 17.4951
rwrist 22.4889
rhand -23.0449 16.7066
rfingers 7.12502
rthumb 3.39978 -13.2461
lclavicle 2.95855e-014 -3.97569e-016
lhumerus -90.3261 56.327 -0.125297
lradius 13.8088
lwrist -65.8229
lhand -12.8278 -2.87045
lfingers 7.12502
lthumb 13.2592 26.6878
rfemur 21.2734 -2.05411 16.5744
rtibia 28.1418
rfoot -4.27131 21.9771
rtoes 10.0594
lfemur -29.5448 -7.44148 -25.4146
ltibia 38.1471
lfoot -6.78629 3.04191
ltoes -8.4297
1468
root 16.6968 16.9171 -24.5792 -197.224 63.6242 527.275
lowerback 7.11669 1.74031 -3.80377
upperback 1.21675 2.05539 -3.27914
thorax -2.741 1.09876 -1.44912
lowerneck 2.53079 -0.671648 -5.4696
upperneck 20.6106 0.148466 1.16919
head 5.83031 0.173519 1.3415
rclavicle -6.11806e-015 -4.85035e-014
rhumerus -30.9933 -25.6345 -80.164
rradius 16.1805
rwrist 24.1543
rhand -22.9772 16.6009
rfingers 7.12502
rthumb 3.46515 -13.3507
lclavicle -6.11806e-015 -4.85035e-014
lhumerus -87.4253 56.4577 3.27634
lradius 13.9303
lwrist -63.5307
lhand -12.7094 -3.00059
lfingers 7.12502
lthumb 13.3733 26.5502
rfemur 19.7826 -2.93007 15.2336
rtibia 31.6178
rfoot -1.78658 22.5961
rtoes 7.8758
lfemur -29.2522 -7.04563 -26.1314
ltibia 39.0808
lfoot -6.96844 2.60018
ltoes -7.75914
1469
root 16.8406 16.9113 -24.6806 -198.269 63.5293 526.39
lowerback 7.30515 1.81232 -4.25452
upperback 1.2354 2.11239 -3.40203
thorax -2.83781 1.13607 -1.33765
lowerneck 2.83012 -0.644763 -5.72508
upperneck 20.6037 0.184129 1.22974
head 5.77847 0.183307 1.40493
rclavicle 6.27942e-014 9.54166e-015
rhumerus -31.7644 -28.3617 -78.415
rradius 14.8729
rwrist 26.3918
rhand -22.7945 16.5492
rfingers 7.12502
rthumb 3.64156 -13.3995
lclavicle 6.27942e-014 9.54166e-015
lhumerus -83.6986 56.3489 7.60161
lradius 14.0516
lwrist -60.8121
lhand -12.4988 -3.07806
lfingers 7.12502
lthumb 13.5763 26.4593
rfemur 18.2319 -3.63134 13.9368
rtibia 35.1417
rfoot 0.727915 22.9549
rtoes 4.44523
lfemur -28.8723 -6.68382 -26.8471
ltibia 39.8826
lfoot -7.22576 2.23712
ltoes -6.97538
